<svg width="58" height="59" viewBox="0 0 58 59" fill="none" xmlns="http://www.w3.org/2000/svg">
<path fill-rule="evenodd" clip-rule="evenodd" d="M29.1209 3.52075H28.8792C27.2745 3.52075 25.8898 3.52075 24.7805 3.67059C23.594 3.83009 22.4533 4.19017 21.5301 5.11334C20.607 6.0365 20.2469 7.17717 20.0874 8.36375C19.9375 9.473 19.9375 10.8578 19.9375 12.4648V18.3301C19.3554 18.1246 18.7424 18.02 18.125 18.0208H10.875C10.161 18.0208 9.45391 18.1614 8.7942 18.4347C8.13449 18.7079 7.53507 19.1084 7.03015 19.6134C6.52523 20.1183 6.12471 20.7177 5.85145 21.3774C5.57819 22.0371 5.43754 22.7442 5.43754 23.4583V51.8541H4.83337C4.35267 51.8541 3.89165 52.045 3.55174 52.3849C3.21183 52.7249 3.02087 53.1859 3.02087 53.6666C3.02087 54.1473 3.21183 54.6083 3.55174 54.9482C3.89165 55.2881 4.35267 55.4791 4.83337 55.4791H53.1667C53.6474 55.4791 54.1084 55.2881 54.4483 54.9482C54.7882 54.6083 54.9792 54.1473 54.9792 53.6666C54.9792 53.1859 54.7882 52.7249 54.4483 52.3849C54.1084 52.045 53.6474 51.8541 53.1667 51.8541H52.5625V35.5416C52.5625 34.0995 51.9897 32.7164 50.9699 31.6967C49.9502 30.677 48.5672 30.1041 47.125 30.1041H39.875C39.2395 30.1041 38.6305 30.2128 38.0625 30.4134V12.4648C38.0625 10.8578 38.0625 9.473 37.9127 8.36375C37.7532 7.17717 37.3931 6.0365 36.47 5.11334C35.5468 4.19017 34.4085 3.83009 33.2195 3.67059C32.1103 3.52075 30.7255 3.52075 29.1185 3.52075M48.9351 51.8541V35.5416C48.9351 35.0609 48.7442 34.5999 48.4043 34.26C48.0643 33.92 47.6033 33.7291 47.1226 33.7291H39.8726C39.3919 33.7291 38.9309 33.92 38.591 34.26C38.2511 34.5999 38.0601 35.0609 38.0601 35.5416V51.8541H48.9351ZM34.4351 51.8541V12.5833C34.4351 10.8239 34.4303 9.68325 34.3191 8.84708C34.2128 8.06167 34.0412 7.81517 33.9035 7.67742C33.7657 7.53967 33.5192 7.36809 32.7338 7.26175C31.8952 7.15059 30.757 7.14575 28.9976 7.14575C27.2383 7.14575 26.0976 7.15059 25.2615 7.26175C24.476 7.36809 24.2295 7.53967 24.0918 7.67742C23.954 7.81517 23.7825 8.06167 23.6761 8.84708C23.565 9.68567 23.5601 10.8239 23.5601 12.5833V51.8541H34.4351ZM19.9351 51.8541V23.4583C19.9351 22.9775 19.7442 22.5165 19.4043 22.1766C19.0643 21.8367 18.6033 21.6458 18.1226 21.6458H10.8726C10.3919 21.6458 9.9309 21.8367 9.59099 22.1766C9.25108 22.5165 9.06012 22.9775 9.06012 23.4583V51.8541H19.9351Z" fill="black"/>
</svg>
