<svg width="60" height="65" viewBox="0 0 60 65" fill="none" xmlns="http://www.w3.org/2000/svg">
<path fill-rule="evenodd" clip-rule="evenodd" d="M19.4897 0.5H39.9478C42.4332 0.5 44.5039 0.5 46.1489 0.778678C47.8823 1.07129 49.4498 1.71922 50.7105 3.3042C51.9684 4.89267 52.4799 6.86781 52.7148 9.05195C52.936 11.1246 52.936 13.7372 52.936 16.8654V42.2391L57.1189 47.6768L57.1272 47.6908L57.1493 47.7151L57.1686 47.743L57.1852 47.7639L57.2129 47.7987L57.2405 47.8371L57.2543 47.8545L57.2765 47.8858L57.3013 47.9207L57.3235 47.9555L57.3566 48.0077C58.3851 49.5056 59.3002 51.749 59.4246 53.9889V54.0028L59.4329 54.0829V54.1282L59.4384 54.177V54.5776C59.4384 55.0304 59.4384 55.6888 59.4246 55.971C59.3072 58.2969 58.521 60.4891 57.2131 62.137C55.9052 63.785 54.1654 64.7757 52.3195 64.9235C52.0762 64.9444 51.8081 64.9444 51.4597 64.9444H7.98055C7.6322 64.9444 7.36403 64.9444 7.12351 64.9235C5.27663 64.7773 3.53548 63.7874 2.22645 62.1392C0.917419 60.4911 0.130396 58.298 0.012913 55.971C0.00104242 55.509 -0.00264451 55.0467 0.00185463 54.5846V54.177L0.00461904 54.1282V54.0864L0.012913 54.0028V53.9889C0.140085 51.749 1.05517 49.5091 2.08361 48.0077C2.09439 47.99 2.10545 47.9726 2.11679 47.9555L2.1389 47.9207L2.16655 47.8858L2.1859 47.8545L2.19696 47.8371L2.22737 47.8022L2.25502 47.7639L2.26884 47.743L2.29096 47.7151L2.31031 47.6908L2.32137 47.6768L6.50424 42.2391V16.8654C6.50424 13.7372 6.50424 11.1246 6.72541 9.05543C6.95764 6.86781 7.47186 4.89267 8.72976 3.30769C9.99042 1.71922 11.558 1.07129 13.2914 0.778678C14.9363 0.5 17.0043 0.5 19.4897 0.5ZM9.45409 45.9107L5.26845 51.3554C4.64088 52.2367 4.17919 53.536 4.14878 54.4104V55.1872C4.14874 55.3382 4.14966 55.4891 4.15155 55.6401C4.20513 56.6982 4.56328 57.6953 5.1588 58.4444C5.75432 59.1935 6.54629 59.6431 7.38615 59.7088C7.47738 59.7192 7.60179 59.7192 8.0469 59.7192H51.3906C51.8329 59.7192 51.9601 59.7192 52.0541 59.7088C52.893 59.6414 53.6836 59.1911 54.278 58.4422C54.8724 57.6933 55.2297 56.6971 55.2832 55.6401L55.2859 55.5181C55.2899 55.2197 55.2908 54.9213 55.2887 54.6229V54.4139C55.2583 53.536 54.7966 52.2367 54.1663 51.3554L49.9806 45.9107H9.45409ZM48.7863 40.6855V17.0465C48.7863 13.6885 48.7808 11.4312 48.6011 9.74865C48.4297 8.14276 48.1339 7.45303 47.7717 7.00018C47.4123 6.54733 46.8677 6.17459 45.5932 5.95513C44.2579 5.73219 42.4664 5.72522 39.8013 5.72522H19.6362C16.9711 5.72522 15.1796 5.73219 13.8443 5.95862C12.5698 6.17459 12.0224 6.54733 11.663 7.00366C11.3036 7.45652 11.005 8.14276 10.8336 9.74865C10.6539 11.4312 10.6512 13.6885 10.6512 17.0465V40.6855H48.7863ZM2.98764 51.965C2.95893 51.9515 2.93036 51.9376 2.90194 51.9232L2.92682 51.9406C2.94692 51.9494 2.9672 51.9575 2.98764 51.965ZM20.7337 53.6231C20.7337 52.9302 20.9522 52.2657 21.341 51.7757C21.7299 51.2858 22.2573 51.0105 22.8072 51.0105H36.6303C37.1802 51.0105 37.7076 51.2858 38.0965 51.7757C38.4853 52.2657 38.7038 52.9302 38.7038 53.6231C38.7038 54.316 38.4853 54.9806 38.0965 55.4705C37.7076 55.9605 37.1802 56.2357 36.6303 56.2357H22.8072C22.2573 56.2357 21.7299 55.9605 21.341 55.4705C20.9522 54.9806 20.7337 54.316 20.7337 53.6231Z" fill="black"/>
</svg>
