<svg width="58" height="59" viewBox="0 0 58 59" fill="none" xmlns="http://www.w3.org/2000/svg">
<path d="M53.1667 21.4043C52.9522 18.3484 51.5851 15.488 49.3419 13.4018C47.0986 11.3156 44.1467 10.1593 41.0833 10.1668H16.9167C13.8179 10.1626 10.836 11.349 8.58716 13.4809C6.33832 15.6128 4.99447 18.5272 4.83334 21.6218C4.81971 21.831 4.81971 22.0409 4.83334 22.2501V40.3751C4.82693 41.4877 5.04133 42.5904 5.46413 43.6196C5.88693 44.6487 6.50972 45.5837 7.29643 46.3704C8.08314 47.1571 9.01813 47.7799 10.0472 48.2027C11.0763 48.6255 12.1791 48.8399 13.2917 48.8335C16.7475 48.8335 18.8983 46.2718 21.0008 43.7826C21.7742 42.8885 22.5717 41.946 23.4175 41.1243C24.5396 40.3023 25.8002 39.6884 27.1392 39.3118C28.3755 39.1668 29.6245 39.1668 30.8608 39.3118C32.1998 39.6884 33.4604 40.3023 34.5825 41.1243C35.4283 41.946 36.2258 42.8885 36.9992 43.7826C39.1017 46.1993 41.2525 48.8335 44.7083 48.8335C45.8209 48.8399 46.9237 48.6255 47.9528 48.2027C48.9819 47.7799 49.9169 47.1571 50.7036 46.3704C51.4903 45.5837 52.1131 44.6487 52.5359 43.6196C52.9587 42.5904 53.1731 41.4877 53.1667 40.3751V22.2501C53.1797 22.0409 53.1797 21.831 53.1667 21.6218V21.4043ZM48.3333 40.3751C48.3333 41.3365 47.9514 42.2586 47.2716 42.9384C46.5918 43.6182 45.6697 44.0001 44.7083 44.0001C43.5 44.0001 42.2917 42.4535 40.6967 40.6651C39.875 39.7226 38.9567 38.611 37.9175 37.6201C36.1677 36.2104 34.1428 35.1815 31.9725 34.5993C30.0067 34.2447 27.9933 34.2447 26.0275 34.5993C23.8572 35.1815 21.8323 36.2104 20.0825 37.6201C19.0433 38.611 18.125 39.7226 17.3033 40.6651C15.805 42.4535 14.5 44.0001 13.2917 44.0001C12.3303 44.0001 11.4082 43.6182 10.7284 42.9384C10.0486 42.2586 9.66667 41.3365 9.66667 40.3751V22.2501C9.67847 22.1296 9.67847 22.0082 9.66667 21.8876C9.75975 20.0283 10.5645 18.2761 11.9142 16.9939C13.2639 15.7117 15.055 14.9978 16.9167 15.0001H41.0833C42.8945 14.9922 44.643 15.6625 45.9847 16.879C47.3265 18.0955 48.1643 19.7702 48.3333 21.5735V21.8635C48.3213 21.9921 48.3213 22.1215 48.3333 22.2501V40.3751Z" fill="black"/>
<path d="M38.6667 31.9166C40.0014 31.9166 41.0833 30.8346 41.0833 29.4999C41.0833 28.1652 40.0014 27.0833 38.6667 27.0833C37.332 27.0833 36.25 28.1652 36.25 29.4999C36.25 30.8346 37.332 31.9166 38.6667 31.9166Z" fill="black"/>
<path d="M43.5 27.0833C44.8347 27.0833 45.9167 26.0014 45.9167 24.6667C45.9167 23.332 44.8347 22.25 43.5 22.25C42.1653 22.25 41.0833 23.332 41.0833 24.6667C41.0833 26.0014 42.1653 27.0833 43.5 27.0833Z" fill="black"/>
<path d="M38.6667 22.2501C40.0014 22.2501 41.0833 21.1681 41.0833 19.8334C41.0833 18.4987 40.0014 17.4167 38.6667 17.4167C37.332 17.4167 36.25 18.4987 36.25 19.8334C36.25 21.1681 37.332 22.2501 38.6667 22.2501Z" fill="black"/>
<path d="M33.8333 27.0833C35.168 27.0833 36.25 26.0014 36.25 24.6667C36.25 23.332 35.168 22.25 33.8333 22.25C32.4986 22.25 31.4167 23.332 31.4167 24.6667C31.4167 26.0014 32.4986 27.0833 33.8333 27.0833Z" fill="black"/>
<path d="M19.3333 29.4999C22.0027 29.4999 24.1667 27.336 24.1667 24.6666C24.1667 21.9972 22.0027 19.8333 19.3333 19.8333C16.664 19.8333 14.5 21.9972 14.5 24.6666C14.5 27.336 16.664 29.4999 19.3333 29.4999Z" fill="black"/>
</svg>
