<svg width="58" height="59" viewBox="0 0 58 59" fill="none" xmlns="http://www.w3.org/2000/svg">
<path d="M29 5.9375C24.3398 5.9375 19.7842 7.31942 15.9094 9.9085C12.0346 12.4976 9.01449 16.1775 7.2311 20.483C5.44771 24.7885 4.98109 29.5261 5.89026 34.0968C6.79942 38.6675 9.04353 42.8659 12.3388 46.1612C15.6341 49.4565 19.8325 51.7006 24.4032 52.6098C28.9739 53.5189 33.7115 53.0523 38.017 51.2689C42.3225 49.4855 46.0024 46.4655 48.5915 42.5906C51.1806 38.7158 52.5625 34.1602 52.5625 29.5C52.5553 23.253 50.0705 17.264 45.6533 12.8467C41.236 8.42948 35.247 5.9447 29 5.9375ZM48.9375 29.5C48.9391 31.3387 48.6852 33.1687 48.1831 34.9375H39.4581C40.0141 31.3338 40.0141 27.6662 39.4581 24.0625H48.1831C48.6852 25.8313 48.9391 27.6613 48.9375 29.5ZM23.1094 38.5625H34.8906C33.7301 42.3656 31.7152 45.8529 29 48.7578C26.2862 45.852 24.2714 42.3649 23.1094 38.5625ZM22.2258 34.9375C21.6033 31.3392 21.6033 27.6608 22.2258 24.0625H35.7924C36.4148 27.6608 36.4148 31.3392 35.7924 34.9375H22.2258ZM9.06251 29.5C9.0609 27.6613 9.31482 25.8313 9.81696 24.0625H18.5419C17.9859 27.6662 17.9859 31.3338 18.5419 34.9375H9.81696C9.31482 33.1687 9.0609 31.3387 9.06251 29.5ZM34.8906 20.4375H23.1094C24.27 16.6344 26.2849 13.1471 29 10.2422C31.7139 13.148 33.7286 16.6351 34.8906 20.4375ZM46.7467 20.4375H38.6765C37.6592 16.7058 35.945 13.2004 33.6242 10.1063C36.4283 10.7799 39.0537 12.0519 41.3203 13.8351C43.5869 15.6184 45.441 17.8706 46.7557 20.4375H46.7467ZM24.3759 10.1063C22.0551 13.2004 20.3408 16.7058 19.3235 20.4375H11.2443C12.559 17.8706 14.4132 15.6184 16.6797 13.8351C18.9463 12.0519 21.5717 10.7799 24.3759 10.1063ZM11.2443 38.5625H19.3235C20.3408 42.2942 22.0551 45.7996 24.3759 48.8938C21.5717 48.2201 18.9463 46.9481 16.6797 45.1649C14.4132 43.3816 12.559 41.1294 11.2443 38.5625ZM33.6242 48.8938C35.945 45.7996 37.6592 42.2942 38.6765 38.5625H46.7557C45.441 41.1294 43.5869 43.3816 41.3203 45.1649C39.0537 46.9481 36.4283 48.2201 33.6242 48.8938Z" fill="black"/>
</svg>
