<svg width="70" height="70" viewBox="0 0 70 70" fill="none" xmlns="http://www.w3.org/2000/svg">
<path d="M35 0C30.4037 0 25.8525 0.927778 21.6061 2.73036C17.3597 4.53294 13.5013 7.17503 10.2513 10.5058C3.68749 17.2325 0 26.3559 0 35.8689C0 51.723 10.045 65.1739 23.94 69.9444C25.69 70.2314 26.25 69.1195 26.25 68.151V62.0891C16.555 64.2413 14.49 57.2827 14.49 57.2827C12.88 53.1219 10.605 52.01 10.605 52.01C7.42 49.7861 10.85 49.8578 10.85 49.8578C14.35 50.1089 16.205 53.5523 16.205 53.5523C19.25 59.0044 24.395 57.3903 26.39 56.5295C26.705 54.198 27.615 52.6197 28.595 51.723C20.825 50.8263 12.67 47.7416 12.67 34.0755C12.67 30.094 14 26.9017 16.275 24.355C15.925 23.4583 14.7 19.7279 16.625 14.8856C16.625 14.8856 19.565 13.9172 26.25 18.5442C29.015 17.7551 32.025 17.3606 35 17.3606C37.975 17.3606 40.985 17.7551 43.75 18.5442C50.435 13.9172 53.375 14.8856 53.375 14.8856C55.3 19.7279 54.075 23.4583 53.725 24.355C56 26.9017 57.33 30.094 57.33 34.0755C57.33 47.7774 49.14 50.7904 41.335 51.6871C42.595 52.7991 43.75 54.9871 43.75 58.3229V68.151C43.75 69.1195 44.31 70.2673 46.095 69.9444C59.99 65.138 70 51.723 70 35.8689C70 31.1586 69.0947 26.4943 67.3358 22.1425C65.5769 17.7907 62.9988 13.8365 59.7487 10.5058C56.4987 7.17503 52.6403 4.53294 48.3939 2.73036C44.1475 0.927778 39.5963 0 35 0Z" fill="#F8F8F8"/>
</svg>
