<svg width="70" height="71" viewBox="0 0 70 71" fill="none" xmlns="http://www.w3.org/2000/svg">
<path d="M22.75 6.33337H47.25C56.5833 6.33337 64.1666 13.9167 64.1666 23.25V47.75C64.1666 52.2366 62.3844 56.5394 59.2119 59.7119C56.0394 62.8844 51.7366 64.6667 47.25 64.6667H22.75C13.4166 64.6667 5.83331 57.0834 5.83331 47.75V23.25C5.83331 18.7635 7.6156 14.4606 10.7881 11.2882C13.9606 8.11566 18.2634 6.33337 22.75 6.33337ZM22.1666 12.1667C19.3819 12.1667 16.7112 13.273 14.742 15.2421C12.7729 17.2112 11.6666 19.8819 11.6666 22.6667V48.3334C11.6666 54.1375 16.3625 58.8334 22.1666 58.8334H47.8333C50.6181 58.8334 53.2888 57.7271 55.2579 55.758C57.2271 53.7889 58.3333 51.1181 58.3333 48.3334V22.6667C58.3333 16.8625 53.6375 12.1667 47.8333 12.1667H22.1666ZM50.3125 16.5417C51.2794 16.5417 52.2067 16.9258 52.8905 17.6095C53.5742 18.2933 53.9583 19.2206 53.9583 20.1875C53.9583 21.1545 53.5742 22.0818 52.8905 22.7655C52.2067 23.4493 51.2794 23.8334 50.3125 23.8334C49.3455 23.8334 48.4182 23.4493 47.7345 22.7655C47.0508 22.0818 46.6666 21.1545 46.6666 20.1875C46.6666 19.2206 47.0508 18.2933 47.7345 17.6095C48.4182 16.9258 49.3455 16.5417 50.3125 16.5417ZM35 20.9167C38.8677 20.9167 42.577 22.4532 45.312 25.1881C48.0469 27.923 49.5833 31.6323 49.5833 35.5C49.5833 39.3678 48.0469 43.0771 45.312 45.812C42.577 48.5469 38.8677 50.0834 35 50.0834C31.1322 50.0834 27.4229 48.5469 24.688 45.812C21.9531 43.0771 20.4166 39.3678 20.4166 35.5C20.4166 31.6323 21.9531 27.923 24.688 25.1881C27.4229 22.4532 31.1322 20.9167 35 20.9167ZM35 26.75C32.6793 26.75 30.4537 27.6719 28.8128 29.3129C27.1718 30.9538 26.25 33.1794 26.25 35.5C26.25 37.8207 27.1718 40.0463 28.8128 41.6872C30.4537 43.3282 32.6793 44.25 35 44.25C37.3206 44.25 39.5462 43.3282 41.1872 41.6872C42.8281 40.0463 43.75 37.8207 43.75 35.5C43.75 33.1794 42.8281 30.9538 41.1872 29.3129C39.5462 27.6719 37.3206 26.75 35 26.75Z" fill="#F8F8F8"/>
</svg>
