<svg width="70" height="71" viewBox="0 0 70 71" fill="none" xmlns="http://www.w3.org/2000/svg">
<g clip-path="url(#clip0_46_211)">
<path fill-rule="evenodd" clip-rule="evenodd" d="M11.6666 34.0417C11.6666 24.0462 21.5921 15.0833 35 15.0833C48.4079 15.0833 58.3333 24.0462 58.3333 34.0417C58.3333 38.9562 55.6675 43.7046 50.8929 48.0912C46.8971 51.7604 41.615 54.9862 35.8312 57.6054C35.6636 56.35 35.2063 55.1508 34.4954 54.1025C33.4366 52.6004 31.8121 51.5737 29.6683 51.1975C18.7687 49.2958 11.6666 42.5 11.6666 34.0417ZM35 9.25C19.4133 9.25 5.83331 19.8754 5.83331 34.0417C5.83331 46.4083 16.1846 54.7675 28.665 56.9433C29.7354 57.13 30.0037 57.7775 30.1029 58.7954C30.24 60.1546 29.9425 61.6071 30.5491 62.8787C31.2754 64.4012 33.0662 65.0808 34.6237 64.4567C42.1225 61.4583 49.3908 57.3896 54.8362 52.3875C60.27 47.4 64.1666 41.2079 64.1666 34.0417C64.1666 19.8754 50.5866 9.25 35 9.25ZM35.7816 27.8C35.3979 27.3398 34.8817 27.009 34.3033 26.8525C33.7249 26.696 33.1123 26.7215 32.5489 26.9255C31.9855 27.1294 31.4985 27.502 31.1543 27.9924C30.8101 28.4829 30.6252 29.0675 30.625 29.6667V38.4167C30.625 39.1902 30.9323 39.9321 31.4792 40.4791C32.0262 41.026 32.7681 41.3333 33.5416 41.3333C34.3152 41.3333 35.0571 41.026 35.604 40.4791C36.151 39.9321 36.4583 39.1902 36.4583 38.4167V37.7225L38.5933 40.2833C38.9771 40.7435 39.4933 41.0743 40.0717 41.2308C40.6501 41.3873 41.2626 41.3618 41.8261 41.1579C42.3895 40.9539 42.8764 40.5814 43.2207 40.0909C43.5649 39.6005 43.7497 39.0159 43.75 38.4167V29.6667C43.75 28.8931 43.4427 28.1513 42.8957 27.6043C42.3487 27.0573 41.6069 26.75 40.8333 26.75C40.0598 26.75 39.3179 27.0573 38.7709 27.6043C38.2239 28.1513 37.9166 28.8931 37.9166 29.6667V30.3608L35.7816 27.8ZM20.4166 29.6667C20.4166 28.8931 20.1094 28.1513 19.5624 27.6043C19.0154 27.0573 18.2735 26.75 17.5 26.75C16.7264 26.75 15.9846 27.0573 15.4376 27.6043C14.8906 28.1513 14.5833 28.8931 14.5833 29.6667V38.4167C14.5833 39.1902 14.8906 39.9321 15.4376 40.4791C15.9846 41.026 16.7264 41.3333 17.5 41.3333H20.4166C21.1902 41.3333 21.9321 41.026 22.479 40.4791C23.026 39.9321 23.3333 39.1902 23.3333 38.4167C23.3333 37.6431 23.026 36.9013 22.479 36.3543C21.9321 35.8073 21.1902 35.5 20.4166 35.5V29.6667ZM26.25 26.75C27.0235 26.75 27.7654 27.0573 28.3124 27.6043C28.8594 28.1513 29.1666 28.8931 29.1666 29.6667V38.4167C29.1666 39.1902 28.8594 39.9321 28.3124 40.4791C27.7654 41.026 27.0235 41.3333 26.25 41.3333C25.4764 41.3333 24.7346 41.026 24.1876 40.4791C23.6406 39.9321 23.3333 39.1902 23.3333 38.4167V29.6667C23.3333 28.8931 23.6406 28.1513 24.1876 27.6043C24.7346 27.0573 25.4764 26.75 26.25 26.75ZM52.5 32.5833H52.1091C52.3651 33.0267 52.4999 33.5297 52.4999 34.0417C52.4999 34.5536 52.3651 35.0566 52.1091 35.5H52.5C53.2735 35.5 54.0154 35.8073 54.5624 36.3543C55.1094 36.9013 55.4166 37.6431 55.4166 38.4167C55.4166 39.1902 55.1094 39.9321 54.5624 40.4791C54.0154 41.026 53.2735 41.3333 52.5 41.3333H48.125C47.3514 41.3333 46.6096 41.026 46.0626 40.4791C45.5156 39.9321 45.2083 39.1902 45.2083 38.4167V29.6667C45.2083 28.8931 45.5156 28.1513 46.0626 27.6043C46.6096 27.0573 47.3514 26.75 48.125 26.75H52.5C53.2735 26.75 54.0154 27.0573 54.5624 27.6043C55.1094 28.1513 55.4166 28.8931 55.4166 29.6667C55.4166 30.4402 55.1094 31.1821 54.5624 31.7291C54.0154 32.276 53.2735 32.5833 52.5 32.5833Z" fill="#F8F8F8"/>
</g>
<defs>
<clipPath id="clip0_46_211">
<rect width="70" height="70" fill="white" transform="translate(0 0.5)"/>
</clipPath>
</defs>
</svg>
