<svg width="70" height="71" viewBox="0 0 70 71" fill="none" xmlns="http://www.w3.org/2000/svg">
<g clip-path="url(#clip0_46_215)">
<path d="M0 5.51375C0 2.74437 2.30125 0.5 5.14062 0.5H64.8594C67.6987 0.5 70 2.74437 70 5.51375V65.4863C70 68.2556 67.6987 70.5 64.8594 70.5H5.14062C2.30125 70.5 0 68.2556 0 65.4863V5.51375ZM21.6256 59.0988V27.4894H11.1213V59.0988H21.6256ZM16.3756 23.1713C20.0375 23.1713 22.3169 20.7475 22.3169 17.7113C22.2512 14.6094 20.0419 12.2513 16.4456 12.2513C12.8494 12.2513 10.5 14.6138 10.5 17.7113C10.5 20.7475 12.7794 23.1713 16.3056 23.1713H16.3756ZM37.8481 59.0988V41.4456C37.8481 40.5006 37.9181 39.5556 38.1981 38.8819C38.955 36.9963 40.6831 35.0406 43.5881 35.0406C47.39 35.0406 48.9081 37.9369 48.9081 42.1894V59.0988H59.4125V40.9688C59.4125 31.2563 54.2325 26.7413 47.32 26.7413C41.7463 26.7413 39.2481 29.8037 37.8481 31.9606V32.07H37.7781L37.8481 31.9606V27.4894H27.3481C27.4794 30.4556 27.3481 59.0988 27.3481 59.0988H37.8481Z" fill="#F8F8F8"/>
</g>
<defs>
<clipPath id="clip0_46_215">
<rect width="70" height="70" fill="white" transform="translate(0 0.5)"/>
</clipPath>
</defs>
</svg>
