<svg width="70" height="71" viewBox="0 0 70 71" fill="none" xmlns="http://www.w3.org/2000/svg">
<path d="M35 18C32.8368 18 30.7221 18.6415 28.9235 19.8433C27.1248 21.0451 25.7229 22.7533 24.8951 24.7519C24.0672 26.7505 23.8506 28.9496 24.2727 31.0713C24.6947 33.193 25.7364 35.1418 27.266 36.6715C28.7957 38.2011 30.7445 39.2428 32.8662 39.6648C34.9879 40.0869 37.187 39.8703 39.1856 39.0424C41.1842 38.2146 42.8924 36.8127 44.0942 35.014C45.296 33.2154 45.9375 31.1007 45.9375 28.9375C45.9375 26.0367 44.7852 23.2547 42.734 21.2035C40.6828 19.1523 37.9008 18 35 18ZM35 35.5C33.7021 35.5 32.4333 35.1151 31.3541 34.394C30.2749 33.6729 29.4337 32.648 28.937 31.4489C28.4403 30.2497 28.3104 28.9302 28.5636 27.6572C28.8168 26.3842 29.4418 25.2149 30.3596 24.2971C31.2774 23.3793 32.4467 22.7543 33.7197 22.5011C34.9927 22.2479 36.3122 22.3778 37.5114 22.8745C38.7105 23.3712 39.7354 24.2124 40.4565 25.2916C41.1776 26.3708 41.5625 27.6396 41.5625 28.9375C41.5625 30.678 40.8711 32.3472 39.6404 33.5779C38.4097 34.8086 36.7405 35.5 35 35.5ZM35 4.875C28.6204 4.88224 22.5043 7.41971 17.9932 11.9307C13.4822 16.4418 10.9447 22.5579 10.9375 28.9375C10.9375 37.5234 14.9051 46.6234 22.4219 55.2559C25.7994 59.1566 29.6009 62.6691 33.7559 65.7285C34.1237 65.9862 34.5619 66.1244 35.0109 66.1244C35.46 66.1244 35.8982 65.9862 36.266 65.7285C40.4134 62.6679 44.2074 59.1554 47.5781 55.2559C55.084 46.6234 59.0625 37.5234 59.0625 28.9375C59.0553 22.5579 56.5178 16.4418 52.0068 11.9307C47.4957 7.41971 41.3796 4.88224 35 4.875ZM35 61.2031C30.4801 57.6484 15.3125 44.5918 15.3125 28.9375C15.3125 23.7161 17.3867 18.7085 21.0788 15.0163C24.771 11.3242 29.7786 9.25 35 9.25C40.2214 9.25 45.229 11.3242 48.9212 15.0163C52.6133 18.7085 54.6875 23.7161 54.6875 28.9375C54.6875 44.5863 39.5199 57.6484 35 61.2031Z" fill="white"/>
</svg>
