<svg width="70" height="71" viewBox="0 0 70 71" fill="none" xmlns="http://www.w3.org/2000/svg">
<g clip-path="url(#clip0_46_207)">
<path d="M15.9862 6.30995C15.728 5.97772 15.402 5.70424 15.0299 5.50768C14.6578 5.31113 14.2481 5.19599 13.8281 5.16992C13.4081 5.14385 12.9874 5.20745 12.5938 5.35648C12.2003 5.50552 11.843 5.73658 11.5456 6.03432L7.02186 10.5624C4.90873 12.6799 4.12998 15.6768 5.05311 18.3062C8.8888 29.1873 15.1207 39.0674 23.2881 47.2162C31.437 55.3837 41.317 61.6155 52.1981 65.4512C54.8275 66.3743 57.8244 65.5956 59.9419 63.4825L64.4656 58.9587C64.7634 58.6613 64.9944 58.304 65.1435 57.9105C65.2925 57.5169 65.3561 57.0962 65.33 56.6762C65.3039 56.2562 65.1888 55.8465 64.9923 55.4744C64.7957 55.1024 64.5222 54.7763 64.19 54.5181L54.0969 46.6693C53.7416 46.3946 53.3288 46.2039 52.8893 46.1114C52.4499 46.019 51.9952 46.0273 51.5594 46.1356L41.9781 48.5287C40.6991 48.8462 39.3598 48.8281 38.0898 48.4763C36.8198 48.1245 35.6621 47.4509 34.7287 46.5206L23.9837 35.7712C23.0527 34.8383 22.3782 33.6808 22.0256 32.4108C21.673 31.1407 21.6543 29.8012 21.9712 28.5218L24.3687 18.9406C24.4771 18.5048 24.4853 18.0501 24.3929 17.6106C24.3004 17.1712 24.1097 16.7583 23.835 16.4031L15.9862 6.30995ZM8.24249 2.73557C9.00809 1.96973 9.92786 1.37552 10.9407 0.992403C11.9536 0.609288 13.0364 0.446034 14.1172 0.51348C15.1979 0.580926 16.252 0.87753 17.2094 1.3836C18.1668 1.88966 19.0055 2.59361 19.67 3.4487L27.5187 13.5374C28.9581 15.3881 29.4656 17.7987 28.8969 20.0737L26.5037 29.655C26.3809 30.1513 26.388 30.6708 26.5244 31.1636C26.6608 31.6563 26.9219 32.1056 27.2825 32.4681L38.0319 43.2174C38.3948 43.5788 38.8448 43.8403 39.3384 43.9767C39.832 44.1132 40.3524 44.1199 40.8494 43.9962L50.4262 41.6031C51.549 41.324 52.7205 41.303 53.8526 41.5417C54.9847 41.7804 56.0479 42.2726 56.9625 42.9812L67.0512 50.83C70.6781 53.6518 71.0106 59.0112 67.7644 62.2531L63.2406 66.7768C60.0031 70.0143 55.1644 71.4362 50.6537 69.8481C39.1067 65.7906 28.6236 59.1808 19.985 50.5106C11.3154 41.8732 4.70552 31.3917 0.647485 19.8462C-0.936265 15.3399 0.48561 10.4968 3.72311 7.25932L8.24249 2.73557Z" fill="white"/>
</g>
<defs>
<clipPath id="clip0_46_207">
<rect width="70" height="70" fill="white" transform="translate(0 0.5)"/>
</clipPath>
</defs>
</svg>
